<?xml version="1.0" encoding="utf-8"?>
<!-- Generator: Adobe Illustrator 24.1.0, SVG Export Plug-In . SVG Version: 6.00 Build 0)  -->
<svg version="1.1" xmlns="http://www.w3.org/2000/svg" xmlns:xlink="http://www.w3.org/1999/xlink" x="0px" y="0px"
	 viewBox="0 0 1920 560" style="enable-background:new 0 0 1920 560;" xml:space="preserve">
<style type="text/css">
	.st0{fill:#91B4F9;}
	.st1{opacity:0.2;enable-background:new    ;}
	.st2{fill:#6C63FF;}
	.st3{display:none;}
	.st4{display:inline;fill:#3F3D56;}
	.st5{display:inline;fill:#6C63FF;}
	.st6{display:inline;opacity:0.2;enable-background:new    ;}
	.st7{display:inline;fill:#E6E6E6;}
	.st8{display:inline;fill:#FFFFFF;}
	.st9{display:inline;fill:#9E616A;}
	.st10{display:inline;fill:#2F2E41;}
	.st11{fill:#575988;}
	.st12{fill:#F5F5F5;}
	.st13{fill:none;stroke:#535461;stroke-width:2;stroke-miterlimit:10;}
	.st14{opacity:0.2;fill:#F5F5F5;enable-background:new    ;}
	.st15{fill:url(#SVGID_1_);}
	.st16{fill:#535461;}
	.st17{fill:#FFFFFF;}
	.st18{fill:url(#SVGID_2_);}
	.st19{fill:url(#SVGID_3_);}
	.st20{fill:url(#SVGID_4_);}
	.st21{fill:#F7C4A7;}
	.st22{opacity:5.000000e-02;enable-background:new    ;}
	.st23{opacity:0.1;enable-background:new    ;}
	.st24{fill:#F3B5B7;}
	.st25{fill:#DDDBE2;}
	.st26{fill:#FC6681;}
</style>
<g id="Layer_1">
	<path class="st0" d="M1920,560H0c0,0,702-424.4,995-423.9C1288,136.6,1921,1,1921,1L1920,560z"/>
</g>
<g id="Layer_3">
	<g class="st1">
		
			<image style="overflow:visible;opacity:0.5;" width="1951" height="589" xlink:href="B1D5D9C672494862.png"  transform="matrix(1 0 0 1 -8 -7)">
		</image>
		<g>
			<path d="M0,560h876c0,0,275.3-159.2,375-192.5c116-38.8,127-33.6,185-44.5c199.3-37.4,159.3-16.5,245-36.7
				c105-24.8,155-53.8,239-170.8L1921,1H0V560z"/>
		</g>
	</g>
</g>
<g id="Layer_2">
	<path class="st2" d="M1,559.5l585,0.5c0,0,374-168.8,483-205c112-37.3,187-65.8,312-68.9c99.3-2.5,166-10.5,235-22.3
		c106-18.1,248.5-138,303.5-200.1l1-63.7H0.5L1,559.5z"/>
</g>
<g id="Layer_4" class="st3">
	<polygon class="st4" points="1330.1,540.6 1268.9,540.6 1268.9,542.6 1278.4,542.6 1278.4,561.3 1280.4,561.3 1280.4,542.6 
		1317.6,542.6 1317.6,561.3 1319.6,561.3 1319.6,542.6 1330.1,542.6 	"/>
	<polygon class="st4" points="1352.8,492.2 1337,492.2 1337,508 1344.3,508 1344.3,561.2 1346.3,561.2 1346.3,508 1352.8,508 	"/>
	<rect x="1269" y="534.7" class="st4" width="61.2" height="2"/>
	<rect x="1269" y="529.7" class="st4" width="61.2" height="2"/>
	<rect x="1269" y="524.8" class="st4" width="61.2" height="2"/>
	<path class="st4" d="M1487,567h-2c0-93.6-76.1-169.7-169.7-169.7c-93.6,0-169.7,76.1-169.7,169.7h-2c0-94.7,77-171.7,171.7-171.7
		C1410,395.3,1487,472.3,1487,567z"/>
	<circle class="st5" cx="1029.8" cy="353.6" r="161.4"/>
	<path class="st6" d="M1149.9,245.8c35,81.9-3,176.8-84.9,211.8c-63.8,27.3-137.8,10.7-183.9-41c35,81.9,129.9,120,211.8,85
		s120-129.9,85-211.8C1170.9,273.7,1161.5,258.8,1149.9,245.8z"/>
	<polygon class="st4" points="1030.3,353.6 1030.7,353.6 1038.7,811 1021.9,811 	"/>
	
		<rect x="1029.4" y="602.2" transform="matrix(0.8849 -0.4659 0.4659 0.8849 -162.1583 556.3732)" class="st4" width="30.1" height="8"/>
	<circle class="st5" cx="1623.8" cy="422" r="130.6"/>
	<path class="st6" d="M1720.9,334.8c28.4,66.3-2.4,143.1-68.8,171.4c-51.6,22.1-111.5,8.7-148.9-33.2
		c28.4,66.3,105.1,97.1,171.4,68.8c66.3-28.4,97.1-105.1,68.8-171.4C1737.9,357.4,1730.3,345.3,1720.9,334.8z"/>
	<polygon class="st4" points="1624.1,422 1624.5,422 1630.9,792.3 1617.3,792.3 	"/>
	
		<rect x="1623.4" y="623.3" transform="matrix(0.8849 -0.4659 0.4659 0.8849 -103.546 834.0958)" class="st4" width="24.4" height="6.5"/>
	<circle class="st5" cx="1238.4" cy="513.9" r="20.6"/>
	<path class="st6" d="M1253.7,500.2c4.5,10.4-0.4,22.5-10.8,27c-8.1,3.5-17.6,1.4-23.4-5.2c4.5,10.4,16.5,15.3,27,10.8
		c10.4-4.5,15.3-16.5,10.8-27C1256.4,503.7,1255.2,501.8,1253.7,500.2z"/>
	<polygon class="st4" points="1238.4,513.9 1238.5,513.9 1239.5,572.2 1237.4,572.2 	"/>
	
		<rect x="1238.3" y="545.6" transform="matrix(0.8849 -0.4659 0.4659 0.8849 -111.6066 640.662)" class="st4" width="3.8" height="1"/>
	
		<ellipse transform="matrix(0.1602 -0.9871 0.9871 0.1602 757.6833 1785.8624)" class="st5" cx="1428.4" cy="447.7" rx="52.6" ry="52.6"/>
	<path class="st6" d="M1467.5,412.5c11.4,26.7-1,57.7-27.7,69.1c-20.8,8.9-44.9,3.5-60-13.4c11.4,26.7,42.4,39.1,69.1,27.7
		c26.7-11.4,39.1-42.4,27.7-69.1C1474.4,421.6,1471.3,416.8,1467.5,412.5L1467.5,412.5z"/>
	<polygon class="st4" points="1428.5,447.7 1428.6,447.7 1431.2,596.9 1425.8,596.9 	"/>
	
		<rect x="1428.2" y="528.8" transform="matrix(0.8849 -0.4659 0.4659 0.8849 -81.9276 728.6699)" class="st4" width="9.8" height="2.6"/>
	<path class="st4" d="M1066,788.3c0,0,0.7-14.3,14.7-12.6"/>
	<circle class="st5" cx="1062.1" cy="767.7" r="7"/>
	<rect x="1060.9" y="779.4" class="st4" width="2" height="13.8"/>
	<path class="st4" d="M1115.3,755.7c0,0,0.7-14.3,14.7-12.6"/>
	<circle class="st5" cx="1111.4" cy="735.1" r="7"/>
	<rect x="1110.3" y="746.9" class="st4" width="2" height="13.8"/>
	<path class="st4" d="M1264.1,645.2c0,0,0.5-11.3,11.6-10"/>
	<circle class="st5" cx="1260.9" cy="628.9" r="5.6"/>
	<rect x="1260" y="638.2" class="st4" width="1.6" height="11"/>
	<path class="st4" d="M1481.2,609.7c0,0,0.5-11.3,11.6-10"/>
	<circle class="st5" cx="1478.1" cy="593.3" r="5.6"/>
	<rect x="1477.2" y="602.7" class="st4" width="1.6" height="11"/>
	<path class="st4" d="M1274,674.8c0,0,0.5-11.3,11.6-10"/>
	<circle class="st5" cx="1270.8" cy="658.5" r="5.6"/>
	<rect x="1269.9" y="667.8" class="st4" width="1.6" height="11"/>
	<path class="st4" d="M1250.3,696.5c0,0,0.5-11.3,11.6-10"/>
	<circle class="st5" cx="1247.1" cy="680.2" r="5.6"/>
	<rect x="1246.2" y="689.5" class="st4" width="1.6" height="11"/>
	<path class="st4" d="M1514.7,628.4c0,0,0.5-11.3,11.6-10"/>
	<circle class="st5" cx="1511.6" cy="612.1" r="5.6"/>
	<rect x="1510.7" y="621.4" class="st4" width="1.6" height="11"/>
	<path class="st4" d="M1195,653.1c0,0,0.5-11.3,11.6-10"/>
	<circle class="st5" cx="1191.9" cy="636.7" r="5.6"/>
	<rect x="1191" y="646.1" class="st4" width="1.6" height="11"/>
	<path class="st4" d="M1451.6,596.8c0,0,0.5-11.3,11.6-10"/>
	<circle class="st5" cx="1448.5" cy="580.5" r="5.6"/>
	<rect x="1447.5" y="589.8" class="st4" width="1.6" height="11"/>
	<path class="st4" d="M980.1,791.2c0,0,0.7-14.3,14.7-12.6"/>
	<circle class="st5" cx="976.2" cy="770.6" r="7"/>
	<rect x="975.1" y="782.4" class="st4" width="2" height="13.8"/>
	<path class="st4" d="M1660.1,787.3c0,0,0.7-14.3,14.7-12.6"/>
	<circle class="st5" cx="1656.1" cy="766.7" r="7"/>
	<rect x="1655" y="778.5" class="st4" width="2" height="13.8"/>
	<path class="st4" d="M1602.9,753.7c0,0,0.7-14.3,14.7-12.6"/>
	<circle class="st5" cx="1598.9" cy="733.1" r="7"/>
	<rect x="1597.8" y="744.9" class="st4" width="2" height="13.8"/>
	<path class="st4" d="M1595,804c0,0,0.7-14.3,14.7-12.6"/>
	<circle class="st5" cx="1591" cy="783.5" r="7"/>
	<rect x="1589.9" y="795.2" class="st4" width="2" height="13.8"/>
	<path class="st7" d="M991.5,814.7c0,0,310.9-81.9,307.9-165.8c-5.4-23.2-42.9-29.1-42.9-29.1s-88.8-11.8-40.5-40.5
		s180.6-21.7,180.6-21.7s-136.2,21.7-76,33.6c48.4,3,110.5,15.8,110.5,15.8s126.3,26.6,144.1,91.8c17.8,65.1,3,115.5,3,115.5
		L991.5,814.7z"/>
	<path class="st8" d="M1330.1,815l-1.2-1.6c1.6-1.2,3.3-2.3,4.9-3.5l1.2,1.6C1333.4,812.7,1331.7,813.8,1330.1,815z"/>
	<path class="st8" d="M1344.6,804.3l-1.2-1.6c3.2-2.4,6.4-4.9,9.5-7.3l1.2,1.6C1351,799.4,1347.8,801.9,1344.6,804.3z M1363.4,789.4
		l-1.3-1.5c3.1-2.6,6.2-5.2,9.1-7.8l1.3,1.5C1369.6,784.2,1366.6,786.8,1363.4,789.4z M1381.5,773.6l-1.4-1.5c3-2.8,5.9-5.6,8.6-8.3
		l1.4,1.4C1387.4,767.9,1384.5,770.8,1381.5,773.6z M1398.3,756.4l-1.5-1.3c2.7-3.1,5.3-6.1,7.7-9.1l1.6,1.2
		C1403.7,750.3,1401.1,753.4,1398.3,756.4z M1413.3,737.6l-1.7-1.1c2.3-3.4,4.4-6.8,6.2-10.1l1.8,1
		C1417.8,730.7,1415.6,734.1,1413.3,737.6z M1424.8,716.4l-1.9-0.7c1.5-3.7,2.6-7.4,3.4-11.3l2,0.4
		C1427.4,708.7,1426.3,712.6,1424.8,716.4L1424.8,716.4z M1427.4,692.7c-0.1-3.9-0.6-7.8-1.6-11.5l1.9-0.5c1.1,3.9,1.6,7.9,1.7,12
		L1427.4,692.7z M1421.4,670.4c-1.9-3.4-4.1-6.7-6.7-9.7l1.5-1.3c2.6,3.1,4.9,6.4,6.9,10L1421.4,670.4z M1406.5,652.2
		c-3-2.6-6.1-5.1-9.3-7.3l1.2-1.6c3.3,2.3,6.5,4.8,9.5,7.5L1406.5,652.2z M1387.2,638.5c-3.3-1.9-6.8-3.8-10.5-5.7l0.9-1.8
		c3.7,1.9,7.3,3.8,10.6,5.8L1387.2,638.5z M1365.9,627.7c-3.5-1.5-7.2-3.1-11-4.6l0.7-1.9c3.9,1.5,7.6,3.1,11.1,4.7L1365.9,627.7z
		 M1343.6,618.8c-3.6-1.3-7.4-2.6-11.3-3.9l0.6-1.9c4,1.3,7.8,2.7,11.4,4L1343.6,618.8z M1320.9,611.1c-3.5-1.1-7.2-2.3-11.5-3.5
		l0.6-1.9c4.2,1.3,8,2.4,11.5,3.5L1320.9,611.1z M1297.9,604.1c-4-1.2-7.9-2.4-11.5-3.5l0.6-1.9c3.6,1.1,7.5,2.3,11.5,3.5
		L1297.9,604.1z M1275,596.9c-3.8-1.3-7.6-2.8-11.3-4.5l0.9-1.8c3.6,1.7,7.3,3.2,11,4.4L1275,596.9z M1259.9,583.8l-1.4-1.4
		c1.8-1.9,5.4-3.7,11-5.5l0.6,1.9C1264.9,580.5,1261.4,582.2,1259.9,583.8L1259.9,583.8z M1281.5,575.5l-0.5-1.9
		c3.5-0.9,7.4-1.8,11.7-2.7l0.4,2C1288.9,573.8,1285,574.7,1281.5,575.5L1281.5,575.5z M1304.9,570.5l-0.4-2
		c3.7-0.7,7.7-1.4,11.8-2.2l0.3,2C1312.5,569.1,1308.6,569.8,1304.9,570.5L1304.9,570.5z M1328.5,566.3l-0.3-2
		c3.8-0.6,7.7-1.3,11.8-1.9l0.3,2C1336.2,565,1332.2,565.7,1328.5,566.3z"/>
	<path class="st8" d="M1352.3,562.5l-0.3-2c1.9-0.3,3.9-0.6,5.9-0.9l0.3,2C1356.3,561.9,1354.3,562.2,1352.3,562.5z"/>
	<path class="st4" d="M1396.6,359.3l9.1-7.3c-7.1-0.8-10,3.1-11.1,6.1c-5.5-2.3-11.5,0.7-11.5,0.7l18.2,6.6
		C1400.3,363,1398.7,360.9,1396.6,359.3z"/>
	<path class="st4" d="M1227.9,415.6l9.1-7.3c-7.1-0.8-10,3.1-11.1,6.1c-5.5-2.3-11.5,0.7-11.5,0.7l18.2,6.6
		C1231.5,419.3,1229.9,417.2,1227.9,415.6z"/>
	<path class="st4" d="M1272.3,299.1l9.1-7.3c-7.1-0.8-10,3.1-11.1,6.1c-5.5-2.3-11.5,0.7-11.5,0.7l18.2,6.6
		C1275.9,302.8,1274.4,300.7,1272.3,299.1z"/>
	<path class="st9" d="M1371,622.7c0,0-7.9,0-8.7,4.8s-2.2,57.3-1.3,63.8c0.9,6.6,0.9,5.2,0.9,5.2s-1.7,12.5,2.2,13
		c3.9,0.5,3.9-14.3,3.9-14.3l3.1-53.3V622.7z"/>
	<path class="st9" d="M1405.1,622.7c0,0,7.9,0,8.7,4.8s2.2,57.3,1.3,63.8c-0.9,6.6-0.9,5.2-0.9,5.2s1.7,12.5-2.2,13
		c-3.9,0.5-3.9-14.3-3.9-14.3l-3.1-53.3L1405.1,622.7z"/>
	<path class="st10" d="M1369.7,805.4h-3.5c-4.3,0-7.9,3.5-7.9,7.9v0v0h21.4v-10.1h-10.1V805.4z"/>
	<path class="st10" d="M1403.4,805.4h3.5c4.3,0,7.9,3.5,7.9,7.9l0,0v0h-21.4v-10.1h10.1L1403.4,805.4z"/>
	<circle class="st9" cx="1384.6" cy="601.2" r="11.4"/>
	<path class="st9" d="M1382,607.4c0,0-1.3,14.4-3.1,15.7c-1.7,1.3,18.4-0.9,18.4-0.9s-7-10.5-5.7-14
		C1392.9,604.7,1382,607.4,1382,607.4z"/>
	<path class="st10" d="M1407.7,622.7c0,0-24-10.1-39.8,0c0,0-3.9,10.1-0.9,15.7s7.9,19.2,3.1,28.4s0.4,5.2,0.4,5.2s-6.1,24.5-7,43.7
		c-0.9,19.2,2.6,88.3,5.2,88.7s10.9,1.3,11.8,0c0.9-1.3,7-92.7,7-92.7s2.6,93.6,5.2,93.6s9.6,0,10.9-2.2c1.3-2.2,12.2-86.6,8.3-104
		c-3.9-17.5-6.6-26.2-6.6-26.2s4.8-3.1,3.5-4.8s-7.9-20.5-4.8-23.6S1407.7,622.7,1407.7,622.7z"/>
	<circle class="st10" cx="1391.8" cy="594.4" r="18.4"/>
	<path class="st10" d="M1403.3,585.2c-6.4-1.5-10.5-7.8-9.3-14.3c-0.1,0.2-0.1,0.4-0.1,0.6c-1.6,6.6,2.6,13.3,9.2,14.9
		c6.6,1.6,13.3-2.6,14.9-9.2c0-0.2,0.1-0.4,0.1-0.6C1416.2,582.9,1409.7,586.7,1403.3,585.2z"/>
	<circle class="st10" cx="1404" cy="578.6" r="9"/>
</g>
<g id="Layer_5">
	<path class="st11" d="M792.2,33.4c-6.6-0.2-13.3,0-19.5,1.9c-16.8,5.1-24.7,22-22.1,36.6s13.2,27.2,24.2,38.8s23,23.1,29,36.9
		c3,6.9,4.4,14.7,1.4,21.6c-4.7,10.6-19,16.6-32.7,17.8c-13.7,1.2-27.4-1.2-41.1-2c-5.8-0.3-11.7-0.4-17.1,1.2
		c-6,1.7-10.9,5.2-15.5,8.8c-17.8,14.2-32.1,33.5-29.7,53.8c2.6,23,25.9,41.2,51.3,50.9c8.4,3.3,17.4,5.9,24.8,10.5
		c19.6,12.2,23.9,35,22,55.1c-1.9,20.1-8.6,40.3-4.9,60.2c4.3,23.2,23.6,44.2,49.5,54c23.1,8.7,52,8.1,72.5-4.2
		c10-6,17.6-14.4,24.1-23c9.8-12.8,17.8-26.7,24-41.6c2.9-6.9,5.5-14.4,12.2-19.2c4.1-3,9.4-4.6,14.6-5.9
		c15.7-3.9,32.3-4.9,48.2-8.4c15.9-3.5,31.9-9.9,40.5-21.4c12.2-16.3,6.5-37.2,6.6-56.3c0.1-43.7,31.9-82.9,43.6-125.5
		c3.8-13.9,5.3-29.3-3.3-41.8c-5.8-8.4-15.6-14.5-25.9-19.2c-22.7-10.3-48.4-14.9-73.7-19.4c-35.2-6.2-78-7-105.2-27.2
		C863.7,47.2,827.9,33.4,792.2,33.4z"/>
	<ellipse class="st12" cx="1134.1" cy="430.5" rx="378.9" ry="101.5"/>
	<path class="st11" d="M1448.7,185.6c0,0-29.2,29.2-12.7,72.5c16.5,43.3-28.3,115.4-28.3,115.4s0.5-0.1,1.4-0.2
		c60-10.6,89.8-79.2,56.4-130.1C1453.1,224.2,1443,202,1448.7,185.6z"/>
	<path class="st13" d="M1448.7,185.6c0,0-16.5,35.8,0,65c16.5,29.2,2.8,111.1-41,122.9"/>
	<path class="st2" d="M1500.7,303.7c0,0-33.3-5.3-36.3,24.5c-3,29.9-64.1,34-64.1,34l1.1,0.8c50.4,33.1,98.6,21.1,91.3-22.8
		C1490,323.8,1490.3,307.4,1500.7,303.7z"/>
	<path class="st14" d="M1500.7,303.7c0,0-33.3-5.3-36.3,24.5c-3,29.9-64.1,34-64.1,34l1.1,0.8c50.4,33.1,98.6,21.1,91.3-22.8
		C1490,323.8,1490.3,307.4,1500.7,303.7z"/>
	<path class="st13" d="M1500.7,303.7c0,0-25.9,5.7-23.7,29.2c2.1,23.5-38.4,51.7-76.7,29.3"/>
	
		<linearGradient id="SVGID_1_" gradientUnits="userSpaceOnUse" x1="695" y1="812.5" x2="695" y2="1110.5" gradientTransform="matrix(1 0 0 -1 457 1222.5)">
		<stop  offset="0" style="stop-color:#808080;stop-opacity:0.25"/>
		<stop  offset="0.54" style="stop-color:#808080;stop-opacity:0.12"/>
		<stop  offset="1" style="stop-color:#808080;stop-opacity:0.1"/>
	</linearGradient>
	<path class="st15" d="M1423.4,376h-52.2c1.2-2.4,1.8-5.1,1.8-7.8V129.5c0-9.7-7.9-17.5-17.5-17.5h0.3H950.5
		c-9.7,0-17.5,7.8-17.5,17.5c0,0,0,0,0,0v238.6c0,2.7,0.6,5.4,1.8,7.8h-54.2c-2.6,0-4.6,2.1-4.6,4.6v0v3.7
		c0,14.2,11.6,25.7,25.9,25.7h500.2c14.3,0,25.9-11.5,25.9-25.7l0,0v-3.7C1428,378,1425.9,376,1423.4,376z M1102.1,390l-4.4-5h109.2
		l-4.9,5L1102.1,390z"/>
	<path class="st16" d="M957,115H1349c10.5,0,19,8.5,19,19V363c0,10.5-8.5,19-19,19H957c-10.5,0-19-8.5-19-19V134
		C938,123.5,946.5,115,957,115z"/>
	<rect x="947" y="154" class="st17" width="411" height="218"/>
	<circle class="st17" cx="1152.5" cy="135.1" r="3.6"/>
	<path class="st16" d="M1216,373l-14.1,14h-99.6l-12.8-14H886.5c-2.5,0-4.5,2-4.5,4.5v4.1c0,14,11.3,25.3,25.3,25.3h489.3
		c14,0,25.3-11.3,25.3-25.3v-4.1c0-2.5-2-4.5-4.5-4.5L1216,373z"/>
	<image style="overflow:visible;" width="731" height="493" xlink:href="app.png"  transform="matrix(0.5622 0 0 0.4428 947 154)">
	</image>
	
		<linearGradient id="SVGID_2_" gradientUnits="userSpaceOnUse" x1="531.5" y1="788.5" x2="531.5" y2="1060.5" gradientTransform="matrix(1 0 0 -1 457 1222.5)">
		<stop  offset="0" style="stop-color:#808080;stop-opacity:0.25"/>
		<stop  offset="0.54" style="stop-color:#808080;stop-opacity:0.12"/>
		<stop  offset="1" style="stop-color:#808080;stop-opacity:0.1"/>
	</linearGradient>
	<path class="st18" d="M1075.1,162H901.9c-8.8,0-15.9,7.1-15.9,15.9v240.3c0,8.8,7.1,15.9,15.9,15.9h173.2c8.8,0,15.9-7.1,15.9-15.9
		V177.9C1091,169.1,1083.9,162,1075.1,162z"/>
	<path class="st16" d="M904.3,165h167.4c9,0,16.3,7.3,16.3,16.3v233.4c0,9-7.3,16.3-16.3,16.3H904.3c-9,0-16.3-7.3-16.3-16.3V181.3
		C888,172.3,895.3,165,904.3,165z"/>
	<rect x="898" y="190" class="st17" width="180" height="216"/>
	<circle class="st17" cx="987.4" cy="177.3" r="2.4"/>
	<circle class="st17" cx="987.4" cy="418.5" r="7.3"/>
	
		<linearGradient id="SVGID_3_" gradientUnits="userSpaceOnUse" x1="441.5" y1="766.5" x2="441.5" y2="979.5" gradientTransform="matrix(1 0 0 -1 457 1222.5)">
		<stop  offset="0" style="stop-color:#808080;stop-opacity:0.25"/>
		<stop  offset="0.54" style="stop-color:#808080;stop-opacity:0.12"/>
		<stop  offset="1" style="stop-color:#808080;stop-opacity:0.1"/>
	</linearGradient>
	<path class="st19" d="M943.2,243h-89.3c-4.9,0-8.8,3.9-8.8,8.8v0v195.4c0,4.9,4,8.8,8.8,8.8l0,0h89.3c4.9,0,8.8-3.9,8.8-8.8l0,0
		V251.8C952,246.9,948,243,943.2,243L943.2,243z"/>
	
		<linearGradient id="SVGID_4_" gradientUnits="userSpaceOnUse" x1="838.362" y1="733.3174" x2="838.362" y2="994.0475" gradientTransform="matrix(1 0 0 -1 457 1222.5)">
		<stop  offset="0" style="stop-color:#808080;stop-opacity:0.25"/>
		<stop  offset="0.54" style="stop-color:#808080;stop-opacity:0.12"/>
		<stop  offset="1" style="stop-color:#808080;stop-opacity:0.1"/>
	</linearGradient>
	<path class="st20" d="M1480.9,353c-9.1-11-20-23.7-18.5-38.4c1.2-11.9-1.7-22.9-1.1-34.8c0.8-17-2.6-30.2-14.7-41.1
		c-7.1-6.4-19-11.3-22.5-10.1c-7,2.5-14.6,1.6-21.8,3.3c-5.5,1.3-9.1,3.3-11.4,5.8c-4.5,4.1-4.6,9.9-2.5,16
		c-7.1,13.1-2.3,29.5,10.7,36.6c0.8,0.5,1.7,0.9,2.6,1.2c-5,2.1-9.4,7-11.1,16.9c-1.2,6.8-3,13.5-5.3,20c-1.1,0.5-2.2,0.9-3.3,1.3
		c0.2,0.1,0.5,0.2,0.7,0.3c-0.5,0.2-1.1,0.4-1.6,0.6c1,0.4,2,0.7,3,0.9c-6.5,16.6-14.7,26.9-14.7,26.9s-15.3,3.4-21.2-2.5
		c0,0,1,1.1,2.3,2.8c-5.8-2.4-15.3-6.4-23.5-9.6c-5.9-2.4-7.4,0-7.4,3.3c-1.4,0.2-2.8,0.7-4.1,1.4c-1.7-1.1-3.6-2.1-5.5-3
		c-3.4-0.8-14.4-6.8-25.4,13.5c-6.4,11.8-22.9,33.4-35.5,49.3c-24.6,11.4-56.6,25.7-68.5,29.4h-7.6c-1-1.6-1.7-2.6-1.7-2.6l-0.6,0.4
		l-0.3-0.4c0,0-14.8,10.3-29.9,10.3c-2.1,0-4.3-0.3-6.3-0.8c-6.9-1.7-11.8-2.5-15.3-2.4c-4.1-0.1-6.5,0.9-7.9,2.8l0,0
		c-0.2,0.2-0.4,0.5-0.5,0.8l0,0c-0.2,0.3-0.3,0.5-0.4,0.8l0,0c-0.1,0.3-0.3,0.6-0.4,0.9c-0.1,0.6,0.1,1.2,0.5,1.6
		c0.2,0.3,0.4,0.6,0.7,0.8l0.4,0.5c1.9,2,5.3,4.6,9.6,7.5c1.2,0.8,2.6,1.7,3.9,2.6l2.6,1.6l2.3,1.4l0.9,0.6l1,0.6l1.9,1.1l1.1,0.7
		l2.1,1.2l1.7,1c4.4,2.6,8.8,5.1,12.8,7.4l2.8,1.7l0.3,0.1l1.8,1l3.1,1.7l2.1,1.2l1,0.5l1.1,0.6l0.2,0.1l1.8,1
		c0.8,0.1,1.6-0.1,2.2-0.6c0.5-2.3,1.8-7.1,3.2-7.5c1.4-0.4,7.5-11,9.2-18.1h16.4c3.2-0.3,6.4-0.8,9.6-1.5c-4.2,3-8.4,4.9-11.7,4.1
		c-6.9-1.7-13.4,2.5-14.1,6.6c0,0.1-0.1,0.2-0.1,0.3s0,0.2-0.1,0.3s0,0.2-0.1,0.3c0,0.1,0,0.2,0,0.3s0,0.7,0,0.8c0,0.1,0,0.2,0,0.3
		c0,0.1,0,0.2,0,0.3c0,0.1,0,0.2,0,0.2s0,0.2,0.1,0.3c0,0.1,0,0.1,0.1,0.2c0.1,0.1,0.1,0.3,0.2,0.4l0,0.1c0.1,0.2,0.2,0.4,0.3,0.5
		l0.1,0.2c0.1,0.1,0.2,0.2,0.3,0.3l0.2,0.2c0.1,0.1,0.2,0.2,0.3,0.3l0.2,0.2l0.4,0.3l0.3,0.2l0.4,0.3l0.3,0.2l0.6,0.3l0.3,0.1
		c0.3,0.1,0.6,0.2,0.9,0.3c0.5,0.2,1.2,0.4,1.9,0.5l0.7,0.2l1,0.2l0.5,0.1c0.7,0.2,1.5,0.3,2.3,0.5l1.1,0.2l0.9,0.2l2.1,0.4
		c1.3,0.2,2.6,0.4,4.1,0.7l3.6,0.5l4.6,0.7l1,0.1l1.6,0.2l2.4,0.3l1.6,0.2l0,0l4.2,0.5l1.3,0.2l2.7,0.3c3.5,0.4,6.9,0.8,10.1,1.2
		l3.6,0.4l1.8,0.2l0.8,0.1l2.2,0.2l1.2,0.1l1.5,0.2l2.1,0.2h0.2l1.4,0.1l0,0c0.7,0.1,1.3-0.4,1.4-1.1c0,0,0-0.1,0-0.1l0,0l0,0
		c0,0,0-0.1,0-0.1c0.1-0.2,0.2-0.4,0.2-0.6c0-2,0.3-4,0.8-6c0.1-0.3,0.2-0.7,0.3-1l0.1-0.4c0.1-0.4,0.3-0.8,0.5-1.3
		c0.1-0.3,0.2-0.6,0.3-0.9c0-0.1,0.1-0.2,0.1-0.3c0-0.1,0.1-0.3,0.1-0.5c1.7-5.8-0.4-16.7-0.9-21c-0.2-1.4-0.5-2.7-0.9-4
		c0.1,0,0.2,0,0.3,0c0.9-0.3,1.7-0.8,2.5-1.3c12.5-4.5,23-9.6,26.4-14.7c5.4-1.4,11.1-0.8,16.1,1.7c6.5,3.2,55.4,19.3,78.2,26.7
		c4.1,3.5,7.3,5.6,9.1,5.5c0,0,29,4.7,40.7-4.5c1,0.7,1.7,1.1,1.7,1.1s16.9-8.5,19.5-19.5c0.8-3.6,1.6-8.8,2.3-14.6
		c3.9-4,6.1-9.4,6.2-15c0.5-18.5,7.7-39.6,12.9-58.4c6.4,0.5,8.9-0.7,14.8-3.6l-0.3-0.3C1480.2,353.4,1480.6,353.2,1480.9,353z
		 M1382.7,381.1l-3.3-1.1c1.1-1.5,2-3,2.8-4.7L1382.7,381.1z M1364.6,388.8l19.6,11.7l0.2,2.4c-0.2,1.8-0.2,3.7,0.2,5.5
		C1375.9,400.7,1365.8,391.4,1364.6,388.8L1364.6,388.8z M1356.6,371.7c-2.1-0.9-3.9-1.7-5.1-2.3c1.6,0.1,3.2,0.2,4.5,0.3
		C1356.3,370.3,1356.5,371,1356.6,371.7L1356.6,371.7z M1304,390.8c0,0,3.4-7.5,11,5c1.2,2,3.4,5.1,6.2,8.9l-22.1-3
		C1301.7,397.8,1303.4,394,1304,390.8L1304,390.8z"/>
	<path class="st21" d="M1352.8,360.5c0,0-15.5-6.5-27.7-11.4c-12.2-4.9-4.9,11.4-4.9,11.4s20.4,5.7,20.4,6.5s17.1,1.6,17.1,1.6
		L1352.8,360.5z"/>
	<path class="st22" d="M1352.8,360.5c0,0-15.5-6.5-27.7-11.4c-12.2-4.9-4.9,11.4-4.9,11.4s20.4,5.7,20.4,6.5s17.1,1.6,17.1,1.6
		L1352.8,360.5z"/>
	<path class="st11" d="M1418.8,296.1c0,0-27.7-14.7-32.6,13.9c-4.9,28.5-20.4,48.1-20.4,48.1s-14.7,3.3-20.4-2.4
		c0,0,13.9,16.3,7.3,17.9c0,0,14.7,10.6,21.2,7.3c6.5-3.3,11.4-25.3,13.9-31C1390.3,344.2,1399.3,294.5,1418.8,296.1z"/>
	<path class="st23" d="M1418.8,296.1c0,0-27.7-14.7-32.6,13.9c-4.9,28.5-20.4,48.1-20.4,48.1s-14.7,3.3-20.4-2.4
		c0,0,13.9,16.3,7.3,17.9c0,0,14.7,10.6,21.2,7.3c6.5-3.3,11.4-25.3,13.9-31C1390.3,344.2,1399.3,294.5,1418.8,296.1z"/>
	<path class="st21" d="M1403.4,286.3c0,0,17.1,19.6,17.9,35.9s19.6-17.1,21.2-17.9c1.6-0.8-16.3-28.5-17.9-37.5
		C1422.9,257.8,1403.4,286.3,1403.4,286.3z"/>
	<polygon class="st21" points="1415.2,294.7 1404.4,304.5 1409.5,325 1423.3,312 1421.7,299 	"/>
	<polygon class="st21" points="1189.9,440 1171.1,440 1178.5,457.9 1196.4,453 	"/>
	<path class="st23" d="M1175.5,436.9c0,0-19.4,13.5-36,9.3c-16.6-4.2-21.1-2.6-23,2.8c-1.8,5,46.3,31.4,54,35.6
		c0.4,0.2,1,0.1,1.2-0.3c0-0.1,0.1-0.1,0.1-0.2c0.5-2.2,1.8-7,3.1-7.3c1.8-0.5,9.8-15.5,9.3-21.4
		C1183.8,449.4,1175.5,436.9,1175.5,436.9z"/>
	<path class="st24" d="M1174.7,436.9c0,0-19.4,13.5-36,9.3c-16.6-4.2-21.1-2.6-23,2.8c-1.8,5,46.3,31.4,54,35.6
		c0.4,0.2,1,0.1,1.2-0.3c0-0.1,0.1-0.1,0.1-0.2c0.5-2.2,1.8-7,3.1-7.3c1.8-0.5,9.8-15.5,9.3-21.4
		C1182.9,449.4,1174.7,436.9,1174.7,436.9z"/>
	<path class="st11" d="M1334.9,404.4l-54.6-7.3c0,0-88.8,42.4-99.4,43.2l2.4,18.7h16.3c6.5,0,70.1-13.9,79-27.7
		c5.2-1.4,10.7-0.8,15.5,1.6c8.1,4.1,86.4,29.3,86.4,29.3L1334.9,404.4z"/>
	<path class="st23" d="M1334.9,404.4l-54.6-7.3c0,0-88.8,42.4-99.4,43.2l2.4,18.7h16.3c6.5,0,70.1-13.9,79-27.7
		c5.2-1.4,10.7-0.8,15.5,1.6c8.1,4.1,86.4,29.3,86.4,29.3L1334.9,404.4z"/>
	<polygon class="st21" points="1238,429.7 1229,441.2 1238,446 1251,436.3 	"/>
	<path class="st11" d="M1393.6,416.7c0,0-29.3-25.1-31.4-29.7s-50.1-35.5-53.4-36.3s-13.9-6.5-24.4,13
		c-10.6,19.6-49.7,66.8-49.7,66.8s12.2,17.1,16.3,16.3c4.1-0.8,49.7-39.1,53-57.8c0,0,3.3-7.3,10.6,4.9
		c7.3,12.2,54.6,70.9,63.6,70.1c0,0,35,5.7,42.4-8.1C1427.8,442,1393.6,416.7,1393.6,416.7z"/>
	<path class="st25" d="M1410.3,297.3c0,0-10.2,4.5-11,23.2c-0.8,18.7-18.7,50.5-18.7,50.5l1.6,37.5c0,0,19.6,19.6,21.2,31.8
		c1.6,12.2,15.5,20.4,15.5,20.4s16.3-8.1,18.7-18.7s4.1-36.7,8.1-46.4c4.1-9.8,1.6-70.9,1.6-70.9l-12.2-21.2l-6.5-7.3l-17.1,19.6
		C1411.5,315.7,1402.1,303,1410.3,297.3z"/>
	<path class="st23" d="M1386.2,396.3c0,0-2.4-29.3,4.9-35.9l14.7-41.6c0,0,5.3-20,4.5-21.6s-19.1,15.9-19.1,15.9l-12.2,43.2
		l3.3,45.6L1386.2,396.3z"/>
	<path class="st11" d="M1385.4,396.3c0,0-2.4-29.3,4.9-35.9l14.7-41.6c0,0,5.7-20.4,4.9-22c-0.8-1.6-19.6,16.3-19.6,16.3l-12.2,43.2
		l3.3,45.6L1385.4,396.3z"/>
	<path class="st21" d="M1391.1,383.3c0,0-40.7-13-43.2-16.3c-2.4-3.3-28.5-24.4-37.5-9.8s33.4,18.7,33.4,18.7l43.2,26.1
		L1391.1,383.3z"/>
	<path class="st23" d="M1239.7,441.1l-12.1-2.2c0,0-19.8,25.3-30,22.7s-19.8,8.5-8.9,12.1c9.8,3.2,52.2,7.7,60.3,8.5
		c0.7,0.1,1.2-0.4,1.3-1.1c0,0,0-0.1,0-0.1c0.1-3.1,0.7-6.3,1.9-9.2c2.2-5.3,0-16.8-0.6-21.2c-0.3-2.6-1.1-5.1-2.4-7.3L1239.7,441.1
		z"/>
	<path class="st24" d="M1239.5,441.9l-12.1-2.2c0,0-19.8,25.3-30,22.7c-10.3-2.6-19.8,8.5-8.9,12.1c9.8,3.2,52.2,7.7,60.3,8.5
		c0.7,0.1,1.2-0.4,1.3-1.1c0,0,0-0.1,0-0.1c0-3.1,0.6-6.3,1.8-9.2c2.2-5.3,0-16.8-0.6-21.2c-0.3-2.6-1.1-5.1-2.4-7.3L1239.5,441.9z"
		/>
	<circle class="st23" cx="1409.5" cy="269.6" r="26.1"/>
	<circle class="st21" cx="1407" cy="269.6" r="26.1"/>
	<path class="st11" d="M1432.7,295.3c0,0,31,10.6,31,32.6s-17.1,57-17.9,85.6c-0.8,28.5-45.6,24.4-45.6,24.4s-6.5-96.1,0-103.5
		C1406.6,327.1,1435.9,298.6,1432.7,295.3z"/>
	<path class="st23" d="M1427,340.9c0,0-11.4,50.5-38.3,41.6c0,0-13.9,20.4-4.1,29.3c0,0,23.6,5.7,39.1-9.8s26.9-21.2,29.3-39.9
		c2.4-18.7,4.1-44.8-4.1-42.4C1440.8,322.2,1427,340.9,1427,340.9z"/>
	<path class="st11" d="M1427.8,340.1c0,0-11.4,50.5-38.3,41.6c0,0-13.9,20.4-4.1,29.3c0,0,23.6,5.7,39.1-9.8
		c15.5-15.5,26.9-21.2,29.3-39.9c2.4-18.7,4.1-44.8-4.1-42.4C1441.6,321.4,1427.8,340.1,1427.8,340.1z"/>
	<path class="st25" d="M1252.7,470.1c0,0.1,0,0.2-0.1,0.2c-0.6,1.4-1,2.8-1.3,4.3c0.2-0.6,0.4-1.3,0.7-1.9
		C1252.3,471.8,1252.5,471,1252.7,470.1z"/>
	
		<image style="overflow:visible;" width="643" height="858" xlink:href="tablet.jpg"  transform="matrix(0.2799 0 0 0.2657 898 190)">
	</image>
	<path class="st25" d="M1189.1,472.1c-3.4-1.1-4.8-2.9-4.8-4.8c-1.4,2.7-0.5,5.6,4.2,7.2c9.8,3.2,52.2,7.7,60.3,8.5
		c0.7,0.1,1.2-0.4,1.3-1.1c0,0,0-0.1,0-0.1l0,0c0-0.6-0.5-1.1-1.1-1.2C1240.2,479.7,1198.8,475.3,1189.1,472.1z"/>
	<path class="st25" d="M1116.8,447.6c0.2-0.6,0.5-1.2,0.8-1.7c-0.9,0.9-1.5,2-1.9,3.2c-1.8,5,46.3,31.4,54,35.6
		c0.4,0.2,1,0.1,1.2-0.4c0-0.1,0.1-0.1,0.1-0.2l0,0c0.1-0.4-0.1-0.8-0.4-1C1162,478.4,1115,452.6,1116.8,447.6z"/>
	<g>
		<path class="st16" d="M855,245H942c4.9,0,9,4,9,9V446c0,4.9-4,9-9,9H855c-4.9,0-9-4-9-9V254C846,249,850,245,855,245z"/>
		<rect x="853" y="265" class="st17" width="90" height="171"/>
		<circle class="st17" cx="887.5" cy="254.7" r="0.8"/>
		<path class="st17" d="M892.4,254h16.3c0.4-0.1,0.8,0.2,0.8,0.7l0,0c0,0.4-0.4,0.8-0.8,1.3h-16.3c-0.5-0.5-0.8-0.9-0.8-1.3l0,0
			C891.6,254.2,892,253.9,892.4,254z"/>
		<circle class="st17" cx="897.7" cy="443.7" r="5.7"/>
	</g>
	<path class="st25" d="M1175.2,475.3c-0.4,0.1-0.9,0.7-1.3,1.5l0.1,0c0.4-0.1,1-0.8,1.7-1.9C1175.6,475.1,1175.4,475.2,1175.2,475.3
		z"/>
	<path class="st23" d="M1403.4,292.6c-2.3,5.1-2.8,10.8-4.5,16.1c-3.3,10.5-11.7,19.3-21.8,22.6c8.5,3.4,18.5-0.7,25-7.6
		c6.5-6.8,10.4-16,14.1-24.8c9.5,6.4,8.3,21.1,11.5,32.5c2.8,10.1,9.8,18.4,19.2,22.9c9.4,4.2,20.2,4,29.4-0.6
		c-8.7-10.6-21.1-25.2-19.6-39.3c1.2-11.5-7-20.2-6.5-31.7c0.8-16.3-5.4-24.6-17.1-35c-6.8-6.1,3.9-14.7-4.9-12.2
		c-3.5,1-7.1-2.7-10.5-1.5c-6.7,2.4-14.1,1.5-21,3.1C1360.7,245.5,1406.8,285.2,1403.4,292.6z"/>
	<image style="overflow:visible;" width="300" height="649" xlink:href="mobile.jpg"  transform="matrix(0.3 0 0 0.2635 853 265)">
	</image>
	<g>
		<path class="st13" d="M834.8,470.3c0,0-10.8-36.7,2-63.7c5.5-11.3,7.1-24,4.7-36.3c-1.2-5.8-2.9-11.5-5.1-17.1"/>
		<path class="st2" d="M844.4,336.2c0,4.5-8.1,17.5-8.1,17.5s-8.1-13-8.1-17.5c0-4.5,3.6-8.1,8.1-8.1S844.4,331.7,844.4,336.2z"/>
		<path class="st2" d="M857.9,361.1c-2.4,3.8-16.4,10.3-16.4,10.3s0.3-15.4,2.7-19.1c2.3-3.9,7.3-5.2,11.1-2.9
			c3.9,2.3,5.2,7.3,2.9,11.1C858.1,360.6,858,360.8,857.9,361.1z"/>
		<path class="st2" d="M857,403.6c-4,2-19.3,0.6-19.3,0.6s8-13.1,12-15.2c4.1-1.9,8.9,0,10.8,4.1C862.2,397,860.7,401.5,857,403.6
			L857,403.6z"/>
		<path class="st2" d="M849.5,435.7c-3.6,2.7-18.9,3.9-18.9,3.9s5.6-14.3,9.3-17c3.7-2.5,8.8-1.5,11.3,2.3
			C853.5,428.3,852.8,433,849.5,435.7z"/>
		<path class="st2" d="M824,372.2c3.3,3.1,18.2,6.4,18.2,6.4s-3.7-14.9-6.9-18c-3.1-3.3-8.2-3.5-11.5-0.4c-3.3,3.1-3.5,8.2-0.4,11.5
			C823.6,371.9,823.8,372.1,824,372.2L824,372.2z"/>
		<path class="st2" d="M816,409.9c4,2,19.3,0.6,19.3,0.6s-8-13.1-12-15.2c-3.9-2.2-8.9-0.8-11.1,3.1c-2.2,3.9-0.8,8.9,3.1,11.1
			C815.6,409.7,815.8,409.8,816,409.9L816,409.9z"/>
		<path class="st2" d="M812.6,447.6c3.6,2.7,18.9,3.9,18.9,3.9s-5.6-14.3-9.3-17c-3.7-2.5-8.8-1.5-11.3,2.3
			C808.6,440.2,809.3,444.9,812.6,447.6z"/>
	</g>
	<path class="st26" d="M1404.2,291.8c-2.3,5.1-2.8,10.8-4.5,16.1c-3.3,10.5-11.7,19.3-21.8,22.6c8.5,3.4,18.5-0.7,25-7.6
		s10.4-16,14.1-24.8c9.5,6.4,8.3,21.1,11.5,32.5c2.8,10.1,9.8,18.4,19.2,22.9c9.4,4.2,20.2,4,29.4-0.6
		c-8.7-10.6-20.3-22.8-18.8-36.9c1.2-11.5-0.6-23.2,0-34.7c0.8-16.3-7.2-32-18.9-42.5c-6.8-6.1-17.5-6.9-20.9-5.7
		c-6.7,2.4-14.1,1.5-21,3.1C1361.5,244.7,1407.6,284.4,1404.2,291.8z"/>
</g>
</svg>
