<?xml version="1.0" encoding="utf-8"?>
<!-- Generator: Adobe Illustrator 24.1.0, SVG Export Plug-In . SVG Version: 6.00 Build 0)  -->
<svg version="1.1" xmlns="http://www.w3.org/2000/svg" xmlns:xlink="http://www.w3.org/1999/xlink" x="0px" y="0px"
	 viewBox="0 0 1920 560" style="enable-background:new 0 0 1920 560;" xml:space="preserve">
<style type="text/css">
	.st0{fill:#64AEFF;}
	.st1{fill:#6C63FF;}
	.st2{fill:#5656F4;}
</style>
<g id="Layer_6">
	<g>
		
			<image style="overflow:visible;opacity:0.5;" width="1964" height="581" xlink:href="3417E3656BBE1FE4.png"  transform="matrix(1 0 0 1 -8 -8)">
		</image>
		<g>
			<path class="st0" d="M0,518.9c0,0,549,64.4,850-49.7c265.6-100.7,430-105.6,592-92.2c109.9,9.1,332,93,492,174l-13-521.7
				c0,0-370-71.3-924,24.7C484.3,142.8,0,0,0,0V518.9z"/>
		</g>
	</g>
</g>
<g id="Layer_5">
	<path class="st1" d="M-11,468.2c0,0,183,62.4,409,62.4s464-122.9,464-122.9S1015,316,1211,278s515,0,515,0l208,25.4l-5-208.7
		c0,0-206.4-112.8-548-51.6c-229,41-202,63-430,107c-175,33.8-247,25-497-15C251.8,102.6,201,74-23,0C-273.8-82.9-11,468.2-11,468.2
		z"/>
</g>
<g id="Layer_3">
	<path class="st2" d="M-11,468c0,0,434,171,857-52s880-138,1088-42V250c0,0-626-121-1029,110s-938,7-938,7L-11,468z"/>
</g>
</svg>
