<?xml version="1.0" encoding="utf-8"?>
<!-- Generator: Adobe Illustrator 24.1.0, SVG Export Plug-In . SVG Version: 6.00 Build 0)  -->
<svg version="1.1" id="_x39_4c1f45f-2d92-458e-bbfe-f6c69da92e14"
	 xmlns="http://www.w3.org/2000/svg" xmlns:xlink="http://www.w3.org/1999/xlink" x="0px" y="0px" viewBox="0 0 546 713.6"
	 style="enable-background:new 0 0 546 713.6;" xml:space="preserve">
<style type="text/css">
	.st0{fill:#E6E8EC;}
	.st1{fill:#DCDFED;}
	.st2{opacity:0.1;enable-background:new    ;}
	.st3{fill:#6C63FF;}
	.st4{fill:#E3E5F1;}
</style>
<g>
	<circle class="st0" cx="477.3" cy="184.4" r="0.4"/>
	<path class="st1" d="M287.6,62.8L26,232.4l170.7,307.8c1.6,2.9,4.4,5,7.6,5.8l154.6,37.7c5.5,1.3,11.1-1.3,13.5-6.4L449.2,418
		l84.1-112.4l-199.5-236C322.3,56,302.5,53.1,287.6,62.8z"/>
	<path class="st2" d="M535.9,306.9l-0.7,1l-49.2,65.8L485,375l-33.2,44.4l-65.6,136.3l-1.8,3.8l-9.3,19.2c-2.4,5.1-8.1,7.7-13.6,6.4
		l-154.6-37.7c-3.2-0.8-6-2.9-7.6-5.8l-14.9-26.8l-2.7-4.8L74.5,316.3l-0.9-1.6l-44.9-80.9l5.4-3.5l41.1-26.6l1-0.6l86.5-56.1
		l5.5-3.5l122-79.2c14.9-9.7,34.7-6.8,46.2,6.8l91,107.7l4,4.8l66,78.1l0.4,0.4l33.2,39.3l4.2,5L535.9,306.9z"/>
	<path class="st2" d="M495.3,260.7l-8.1,56l-2.4,16.9l-1.4,36l-0.1,2.8L476,560.5c-0.3,6.6-5.8,11.7-12.4,11.4
		c-0.7,0-1.4-0.1-2.1-0.3l-77.9-17.4l-0.8-0.2l-199.9-44.6l-3.7-0.8L69.3,484.1L71.8,315l0.1-5.6l0.8-51.2l0.8-56.5l86.5-56.1
		l5.5-3.5c80.3,8.2,187,24.1,259.3,35.4l4,4.8l66,78.1L495.3,260.7z"/>
	<path class="st3" d="M504.4,194.3l-9.5,66l-8.7,60.4l-2.4,16.9l-1.4,36L475,564.5c-0.3,6.6-5.8,11.7-12.4,11.4
		c-0.7,0-1.4-0.1-2.1-0.3l-78.8-17.6l-199.9-44.6L68.3,488.1l2.6-174.8l0.8-51.2l0.9-59.9l0.9-61.6c18.8-0.9,49.7,1.1,86.6,4.8
		c82.6,8.3,195.2,25.1,268.8,36.6C473.9,189.2,504.4,194.3,504.4,194.3z"/>
	<path class="st2" d="M528.5,300l-42.3,20.7L270.5,426.5L71.7,262.2l-40.2-33.3l-5.4,3.5l44.9,80.9l-2.6,174.8l113.6,25.4l14.8,26.8
		c1.6,2.9,4.4,5,7.6,5.8l154.6,37.7c5.5,1.3,11.1-1.4,13.5-6.4l9.3-19.2l78.8,17.6c6.4,1.4,12.8-2.6,14.2-9.1
		c0.2-0.7,0.2-1.4,0.3-2.1l7.3-190.9l50.1-67l0.1-1.7L528.5,300z"/>
	<path class="st1" d="M26,232.4L8.2,537.8c-0.3,5.8,3.6,11.1,9.3,12.3L491,655.2c6.4,1.4,12.8-2.7,14.2-9.1c0.1-0.5,0.2-1,0.2-1.6
		l27.7-339L270.5,434.5L26,232.4z"/>
	<path class="st2" d="M11.5,544.7l246-151.8c7.5-4.6,17.2-3,23,3.6l220.2,256.8c0.8,0.9,1.2,0.3,0,0L11.5,544.7
		C10.1,544.4,10.2,545.5,11.5,544.7z"/>
	<path class="st4" d="M13.2,544.5l243.5-147.1c7.9-4.8,18.2-3.2,24.3,3.8l218.2,250.9c1,1.1,0.8,2.8-0.3,3.7
		c-0.6,0.5-1.5,0.8-2.3,0.6L14,549.3c-1.4-0.3-2.3-1.7-2-3.1C12.2,545.5,12.6,544.9,13.2,544.5z"/>
</g>
</svg>
