<?xml version="1.0" encoding="utf-8"?>
<!-- Generator: Adobe Illustrator 24.1.0, SVG Export Plug-In . SVG Version: 6.00 Build 0)  -->
<svg version="1.1" xmlns="http://www.w3.org/2000/svg" xmlns:xlink="http://www.w3.org/1999/xlink" x="0px" y="0px"
	 viewBox="0 0 1920 560" style="enable-background:new 0 0 1920 560;" xml:space="preserve">
<style type="text/css">
	.st0{fill:#91B4F9;}
	.st1{opacity:0.2;enable-background:new    ;}
	.st2{fill:#6C63FF;}
	.st3{display:none;}
	.st4{display:inline;fill:#3F3D56;}
	.st5{display:inline;fill:#6C63FF;}
	.st6{display:inline;opacity:0.2;enable-background:new    ;}
	.st7{display:inline;fill:#E6E6E6;}
	.st8{display:inline;fill:#FFFFFF;}
	.st9{display:inline;fill:#9E616A;}
	.st10{display:inline;fill:#2F2E41;}
	.st11{fill:#E6E6E6;}
	.st12{fill:#FFFFFF;}
	.st13{fill:#FFB8B8;}
	.st14{fill:#2F2E41;}
	.st15{fill:#3F3D56;}
</style>
<g id="Layer_1">
	<path class="st0" d="M1920,560H0c0,0,702-424.4,995-423.9C1288,136.6,1921,1,1921,1L1920,560z"/>
</g>
<g id="Layer_3">
	<g class="st1">
		
			<image style="overflow:visible;opacity:0.5;" width="1951" height="589" xlink:href="193AF5863ACF2581.png"  transform="matrix(1 0 0 1 -8 -7)">
		</image>
		<g>
			<path d="M0,560h876c0,0,275.3-159.2,375-192.5c116-38.8,127-33.6,185-44.5c199.3-37.4,159.3-16.5,245-36.7
				c105-24.8,155-53.8,239-170.8L1921,1H0V560z"/>
		</g>
	</g>
</g>
<g id="Layer_2">
	<path class="st2" d="M1,559.5l585,0.5c0,0,374-168.8,483-205c112-37.3,187-65.8,312-68.9c99.3-2.5,166-10.5,235-22.3
		c106-18.1,248.5-138,303.5-200.1l1-63.7H0.5L1,559.5z"/>
</g>
<g id="Layer_4" class="st3">
	<polygon class="st4" points="1330.1,540.6 1268.9,540.6 1268.9,542.6 1278.4,542.6 1278.4,561.3 1280.4,561.3 1280.4,542.6 
		1317.6,542.6 1317.6,561.3 1319.6,561.3 1319.6,542.6 1330.1,542.6 	"/>
	<polygon class="st4" points="1352.8,492.2 1337,492.2 1337,508 1344.3,508 1344.3,561.2 1346.3,561.2 1346.3,508 1352.8,508 	"/>
	<rect x="1269" y="534.7" class="st4" width="61.2" height="2"/>
	<rect x="1269" y="529.7" class="st4" width="61.2" height="2"/>
	<rect x="1269" y="524.8" class="st4" width="61.2" height="2"/>
	<path class="st4" d="M1487,567h-2c0-93.6-76.1-169.7-169.7-169.7c-93.6,0-169.7,76.1-169.7,169.7h-2c0-94.7,77-171.7,171.7-171.7
		C1410,395.3,1487,472.3,1487,567z"/>
	<circle class="st5" cx="1029.8" cy="353.6" r="161.4"/>
	<path class="st6" d="M1149.9,245.8c35,81.9-3,176.8-84.9,211.8c-63.8,27.3-137.8,10.7-183.9-41c35,81.9,129.9,120,211.8,85
		s120-129.9,85-211.8C1170.9,273.7,1161.5,258.8,1149.9,245.8z"/>
	<polygon class="st4" points="1030.3,353.6 1030.7,353.6 1038.7,811 1021.9,811 	"/>
	
		<rect x="1029.4" y="602.2" transform="matrix(0.8849 -0.4659 0.4659 0.8849 -162.1583 556.3732)" class="st4" width="30.1" height="8"/>
	<circle class="st5" cx="1623.8" cy="422" r="130.6"/>
	<path class="st6" d="M1720.9,334.8c28.4,66.3-2.4,143.1-68.8,171.4c-51.6,22.1-111.5,8.7-148.9-33.2
		c28.4,66.3,105.1,97.1,171.4,68.8c66.3-28.4,97.1-105.1,68.8-171.4C1737.9,357.4,1730.3,345.3,1720.9,334.8z"/>
	<polygon class="st4" points="1624.1,422 1624.5,422 1630.9,792.3 1617.3,792.3 	"/>
	
		<rect x="1623.4" y="623.3" transform="matrix(0.8849 -0.4659 0.4659 0.8849 -103.546 834.0958)" class="st4" width="24.4" height="6.5"/>
	<circle class="st5" cx="1238.4" cy="513.9" r="20.6"/>
	<path class="st6" d="M1253.7,500.2c4.5,10.4-0.4,22.5-10.8,27c-8.1,3.5-17.6,1.4-23.4-5.2c4.5,10.4,16.5,15.3,27,10.8
		c10.4-4.5,15.3-16.5,10.8-27C1256.4,503.7,1255.2,501.8,1253.7,500.2z"/>
	<polygon class="st4" points="1238.4,513.9 1238.5,513.9 1239.5,572.2 1237.4,572.2 	"/>
	
		<rect x="1238.3" y="545.6" transform="matrix(0.8849 -0.4659 0.4659 0.8849 -111.6066 640.662)" class="st4" width="3.8" height="1"/>
	
		<ellipse transform="matrix(0.1602 -0.9871 0.9871 0.1602 757.6833 1785.8624)" class="st5" cx="1428.4" cy="447.7" rx="52.6" ry="52.6"/>
	<path class="st6" d="M1467.5,412.5c11.4,26.7-1,57.7-27.7,69.1c-20.8,8.9-44.9,3.5-60-13.4c11.4,26.7,42.4,39.1,69.1,27.7
		c26.7-11.4,39.1-42.4,27.7-69.1C1474.4,421.6,1471.3,416.8,1467.5,412.5L1467.5,412.5z"/>
	<polygon class="st4" points="1428.5,447.7 1428.6,447.7 1431.2,596.9 1425.8,596.9 	"/>
	
		<rect x="1428.2" y="528.8" transform="matrix(0.8849 -0.4659 0.4659 0.8849 -81.9276 728.6699)" class="st4" width="9.8" height="2.6"/>
	<path class="st4" d="M1066,788.3c0,0,0.7-14.3,14.7-12.6"/>
	<circle class="st5" cx="1062.1" cy="767.7" r="7"/>
	<rect x="1060.9" y="779.4" class="st4" width="2" height="13.8"/>
	<path class="st4" d="M1115.3,755.7c0,0,0.7-14.3,14.7-12.6"/>
	<circle class="st5" cx="1111.4" cy="735.1" r="7"/>
	<rect x="1110.3" y="746.9" class="st4" width="2" height="13.8"/>
	<path class="st4" d="M1264.1,645.2c0,0,0.5-11.3,11.6-10"/>
	<circle class="st5" cx="1260.9" cy="628.9" r="5.6"/>
	<rect x="1260" y="638.2" class="st4" width="1.6" height="11"/>
	<path class="st4" d="M1481.2,609.7c0,0,0.5-11.3,11.6-10"/>
	<circle class="st5" cx="1478.1" cy="593.3" r="5.6"/>
	<rect x="1477.2" y="602.7" class="st4" width="1.6" height="11"/>
	<path class="st4" d="M1274,674.8c0,0,0.5-11.3,11.6-10"/>
	<circle class="st5" cx="1270.8" cy="658.5" r="5.6"/>
	<rect x="1269.9" y="667.8" class="st4" width="1.6" height="11"/>
	<path class="st4" d="M1250.3,696.5c0,0,0.5-11.3,11.6-10"/>
	<circle class="st5" cx="1247.1" cy="680.2" r="5.6"/>
	<rect x="1246.2" y="689.5" class="st4" width="1.6" height="11"/>
	<path class="st4" d="M1514.7,628.4c0,0,0.5-11.3,11.6-10"/>
	<circle class="st5" cx="1511.6" cy="612.1" r="5.6"/>
	<rect x="1510.7" y="621.4" class="st4" width="1.6" height="11"/>
	<path class="st4" d="M1195,653.1c0,0,0.5-11.3,11.6-10"/>
	<circle class="st5" cx="1191.9" cy="636.7" r="5.6"/>
	<rect x="1191" y="646.1" class="st4" width="1.6" height="11"/>
	<path class="st4" d="M1451.6,596.8c0,0,0.5-11.3,11.6-10"/>
	<circle class="st5" cx="1448.5" cy="580.5" r="5.6"/>
	<rect x="1447.5" y="589.8" class="st4" width="1.6" height="11"/>
	<path class="st4" d="M980.1,791.2c0,0,0.7-14.3,14.7-12.6"/>
	<circle class="st5" cx="976.2" cy="770.6" r="7"/>
	<rect x="975.1" y="782.4" class="st4" width="2" height="13.8"/>
	<path class="st4" d="M1660.1,787.3c0,0,0.7-14.3,14.7-12.6"/>
	<circle class="st5" cx="1656.1" cy="766.7" r="7"/>
	<rect x="1655" y="778.5" class="st4" width="2" height="13.8"/>
	<path class="st4" d="M1602.9,753.7c0,0,0.7-14.3,14.7-12.6"/>
	<circle class="st5" cx="1598.9" cy="733.1" r="7"/>
	<rect x="1597.8" y="744.9" class="st4" width="2" height="13.8"/>
	<path class="st4" d="M1595,804c0,0,0.7-14.3,14.7-12.6"/>
	<circle class="st5" cx="1591" cy="783.5" r="7"/>
	<rect x="1589.9" y="795.2" class="st4" width="2" height="13.8"/>
	<path class="st7" d="M991.5,814.7c0,0,310.9-81.9,307.9-165.8c-5.4-23.2-42.9-29.1-42.9-29.1s-88.8-11.8-40.5-40.5
		s180.6-21.7,180.6-21.7s-136.2,21.7-76,33.6c48.4,3,110.5,15.8,110.5,15.8s126.3,26.6,144.1,91.8c17.8,65.1,3,115.5,3,115.5
		L991.5,814.7z"/>
	<path class="st8" d="M1330.1,815l-1.2-1.6c1.6-1.2,3.3-2.3,4.9-3.5l1.2,1.6C1333.4,812.7,1331.7,813.8,1330.1,815z"/>
	<path class="st8" d="M1344.6,804.3l-1.2-1.6c3.2-2.4,6.4-4.9,9.5-7.3l1.2,1.6C1351,799.4,1347.8,801.9,1344.6,804.3z M1363.4,789.4
		l-1.3-1.5c3.1-2.6,6.2-5.2,9.1-7.8l1.3,1.5C1369.6,784.2,1366.6,786.8,1363.4,789.4z M1381.5,773.6l-1.4-1.5c3-2.8,5.9-5.6,8.6-8.3
		l1.4,1.4C1387.4,767.9,1384.5,770.8,1381.5,773.6z M1398.3,756.4l-1.5-1.3c2.7-3.1,5.3-6.1,7.7-9.1l1.6,1.2
		C1403.7,750.3,1401.1,753.4,1398.3,756.4z M1413.3,737.6l-1.7-1.1c2.3-3.4,4.4-6.8,6.2-10.1l1.8,1
		C1417.8,730.7,1415.6,734.1,1413.3,737.6z M1424.8,716.4l-1.9-0.7c1.5-3.7,2.6-7.4,3.4-11.3l2,0.4
		C1427.4,708.7,1426.3,712.6,1424.8,716.4L1424.8,716.4z M1427.4,692.7c-0.1-3.9-0.6-7.8-1.6-11.5l1.9-0.5c1.1,3.9,1.6,7.9,1.7,12
		L1427.4,692.7z M1421.4,670.4c-1.9-3.4-4.1-6.7-6.7-9.7l1.5-1.3c2.6,3.1,4.9,6.4,6.9,10L1421.4,670.4z M1406.5,652.2
		c-3-2.6-6.1-5.1-9.3-7.3l1.2-1.6c3.3,2.3,6.5,4.8,9.5,7.5L1406.5,652.2z M1387.2,638.5c-3.3-1.9-6.8-3.8-10.5-5.7l0.9-1.8
		c3.7,1.9,7.3,3.8,10.6,5.8L1387.2,638.5z M1365.9,627.7c-3.5-1.5-7.2-3.1-11-4.6l0.7-1.9c3.9,1.5,7.6,3.1,11.1,4.7L1365.9,627.7z
		 M1343.6,618.8c-3.6-1.3-7.4-2.6-11.3-3.9l0.6-1.9c4,1.3,7.8,2.7,11.4,4L1343.6,618.8z M1320.9,611.1c-3.5-1.1-7.2-2.3-11.5-3.5
		l0.6-1.9c4.2,1.3,8,2.4,11.5,3.5L1320.9,611.1z M1297.9,604.1c-4-1.2-7.9-2.4-11.5-3.5l0.6-1.9c3.6,1.1,7.5,2.3,11.5,3.5
		L1297.9,604.1z M1275,596.9c-3.8-1.3-7.6-2.8-11.3-4.5l0.9-1.8c3.6,1.7,7.3,3.2,11,4.4L1275,596.9z M1259.9,583.8l-1.4-1.4
		c1.8-1.9,5.4-3.7,11-5.5l0.6,1.9C1264.9,580.5,1261.4,582.2,1259.9,583.8L1259.9,583.8z M1281.5,575.5l-0.5-1.9
		c3.5-0.9,7.4-1.8,11.7-2.7l0.4,2C1288.9,573.8,1285,574.7,1281.5,575.5L1281.5,575.5z M1304.9,570.5l-0.4-2
		c3.7-0.7,7.7-1.4,11.8-2.2l0.3,2C1312.5,569.1,1308.6,569.8,1304.9,570.5L1304.9,570.5z M1328.5,566.3l-0.3-2
		c3.8-0.6,7.7-1.3,11.8-1.9l0.3,2C1336.2,565,1332.2,565.7,1328.5,566.3z"/>
	<path class="st8" d="M1352.3,562.5l-0.3-2c1.9-0.3,3.9-0.6,5.9-0.9l0.3,2C1356.3,561.9,1354.3,562.2,1352.3,562.5z"/>
	<path class="st4" d="M1396.6,359.3l9.1-7.3c-7.1-0.8-10,3.1-11.1,6.1c-5.5-2.3-11.5,0.7-11.5,0.7l18.2,6.6
		C1400.3,363,1398.7,360.9,1396.6,359.3z"/>
	<path class="st4" d="M1227.9,415.6l9.1-7.3c-7.1-0.8-10,3.1-11.1,6.1c-5.5-2.3-11.5,0.7-11.5,0.7l18.2,6.6
		C1231.5,419.3,1229.9,417.2,1227.9,415.6z"/>
	<path class="st4" d="M1272.3,299.1l9.1-7.3c-7.1-0.8-10,3.1-11.1,6.1c-5.5-2.3-11.5,0.7-11.5,0.7l18.2,6.6
		C1275.9,302.8,1274.4,300.7,1272.3,299.1z"/>
	<path class="st9" d="M1371,622.7c0,0-7.9,0-8.7,4.8s-2.2,57.3-1.3,63.8c0.9,6.6,0.9,5.2,0.9,5.2s-1.7,12.5,2.2,13
		c3.9,0.5,3.9-14.3,3.9-14.3l3.1-53.3V622.7z"/>
	<path class="st9" d="M1405.1,622.7c0,0,7.9,0,8.7,4.8s2.2,57.3,1.3,63.8c-0.9,6.6-0.9,5.2-0.9,5.2s1.7,12.5-2.2,13
		c-3.9,0.5-3.9-14.3-3.9-14.3l-3.1-53.3L1405.1,622.7z"/>
	<path class="st10" d="M1369.7,805.4h-3.5c-4.3,0-7.9,3.5-7.9,7.9v0v0h21.4v-10.1h-10.1V805.4z"/>
	<path class="st10" d="M1403.4,805.4h3.5c4.3,0,7.9,3.5,7.9,7.9l0,0v0h-21.4v-10.1h10.1L1403.4,805.4z"/>
	<circle class="st9" cx="1384.6" cy="601.2" r="11.4"/>
	<path class="st9" d="M1382,607.4c0,0-1.3,14.4-3.1,15.7c-1.7,1.3,18.4-0.9,18.4-0.9s-7-10.5-5.7-14
		C1392.9,604.7,1382,607.4,1382,607.4z"/>
	<path class="st10" d="M1407.7,622.7c0,0-24-10.1-39.8,0c0,0-3.9,10.1-0.9,15.7s7.9,19.2,3.1,28.4s0.4,5.2,0.4,5.2s-6.1,24.5-7,43.7
		c-0.9,19.2,2.6,88.3,5.2,88.7s10.9,1.3,11.8,0c0.9-1.3,7-92.7,7-92.7s2.6,93.6,5.2,93.6s9.6,0,10.9-2.2c1.3-2.2,12.2-86.6,8.3-104
		c-3.9-17.5-6.6-26.2-6.6-26.2s4.8-3.1,3.5-4.8s-7.9-20.5-4.8-23.6S1407.7,622.7,1407.7,622.7z"/>
	<circle class="st10" cx="1391.8" cy="594.4" r="18.4"/>
	<path class="st10" d="M1403.3,585.2c-6.4-1.5-10.5-7.8-9.3-14.3c-0.1,0.2-0.1,0.4-0.1,0.6c-1.6,6.6,2.6,13.3,9.2,14.9
		c6.6,1.6,13.3-2.6,14.9-9.2c0-0.2,0.1-0.4,0.1-0.6C1416.2,582.9,1409.7,586.7,1403.3,585.2z"/>
	<circle class="st10" cx="1404" cy="578.6" r="9"/>
</g>
<g id="Layer_5">
	<g>
		<rect x="469.3" y="39.7" class="st11" width="753.6" height="481.8"/>
		<rect x="491.8" y="100.2" class="st12" width="709.7" height="392.8"/>
		<rect x="469.3" y="38.5" class="st2" width="753.6" height="32"/>
		<circle class="st12" cx="493.1" cy="55.2" r="5.9"/>
		<circle class="st12" cx="515.6" cy="55.2" r="5.9"/>
		<circle class="st12" cx="538.2" cy="55.2" r="5.9"/>
		<rect id="player" x="510" y="137.6" class="st2" width="502.6" height="281.7"/>
		<rect x="1032.8" y="117.3" class="st11" width="153.1" height="86.6"/>
		<rect x="1032.8" y="253.7" class="st11" width="153.1" height="86.6"/>
		<rect x="1032.8" y="390" class="st11" width="153.1" height="86.6"/>
		<rect x="509.5" y="455.8" class="st11" width="503" height="19"/>
		<polygon class="st12" points="804.9,273.2 717.3,222.6 717.3,323.8 804.9,273.2 717.3,222.6 717.3,323.8 		"/>
		<polygon class="st13" points="1321.7,486.8 1324.1,498.9 1312.1,501.3 1313.9,486.2 		"/>
		<polygon class="st13" points="1370.9,484.7 1368.2,498.3 1357,498.5 1360.5,481.9 		"/>
		<path class="st14" d="M1388.9,344.9l3.1,21.1c0,0-3.1,46.8-3.9,49.1c-0.8,2.3-3.1,14-3.1,14l-13.3,56.1c0,0-11.5,1.6-13.8-4.7
			l0.6-33.5l-0.8-38.2l-9.4-43.7l-16.4,59.3c0,0-0.8,19.5-3.1,26.5c-2.3,7-5.5,37.4-5.5,37.4s-9.9,2.3-10.7,0s-4.9-57.7-4.9-66.3
			s-4.6-90.8-4.6-90.8L1388.9,344.9z"/>
		<path class="st14" d="M1360.6,497.2c1.3,0.3,2.6,0.3,3.9,0c1.5-0.5,0-3.4,0-3.4h5.4c0,0,5.8,13.1,8.3,14.1c2.4,1,10.2,11.7,1,11.7
			c-5.7-0.1-11.3-1.8-16.1-4.9c0,0-1-4.4-5.4-4.9c-4.4-0.5-7.3-5.8-7.3-5.8l4.8-8.8c0.4-0.8,1.4-1,2.1-0.6c0.3,0.1,0.5,0.4,0.6,0.6
			C1358.5,496.4,1359.4,497.4,1360.6,497.2z"/>
		<path class="st14" d="M1319.8,496c0,0-1.1,2.2-2.2,1.1c-0.9-1.2-1.6-2.4-2.2-3.8c0,0-3.3-1.6-3.8,0c-0.5,1.6-2.7,10.3-3.8,11.4
			c-1.1,1.1-12.5,12.5-1.1,14.7c11.4,2.2,13.6-2.7,13.6-2.7s-1.6-2.7,1.6-3.8s3.8-4.9,3.8-4.9l-1.6-12.3c-0.1-0.7-0.8-1.2-1.5-1.1
			c-0.4,0-0.7,0.2-0.9,0.5C1321.1,495.9,1320.4,496.4,1319.8,496z"/>
		<path class="st13" d="M1406.6,290.3l2.3,40.5c0,0,10.9,25.7-3.9,25c-14.8-0.8-5.5-25.7-5.5-25.7l-14.5-36.2L1406.6,290.3z"/>
		<path class="st13" d="M1286.6,278.6l-2.3,40.5c0,0-10.9,25.7,3.9,25c14.8-0.8,5.5-25.7,5.5-25.7l14.5-36.2L1286.6,278.6z"/>
		<circle class="st13" cx="1348.9" cy="170.2" r="20.3"/>
		<path class="st13" d="M1364.9,178.4c0,0-5.5,21.8,5.5,27.3s-34.3,13.3-37.4,0l1.6-6.2c0,0,6.2-7.8,4.7-14.8L1364.9,178.4z"/>
		<path class="st11" d="M1352.8,206.1c0,0-13.5,1.3-17.6-7.6c0,0-31.5,2.1-38.5,31c8.1,0.2,18.2,92.9,4.9,102.2
			c-10.8,7.5,18.7,19,59.8,19.5l31.2-1.6c-5.8-5-19.7-70.2-10.9-69.4c0,0,23.4-36.6,21.1-42.1c-2.3-5.5-6.1-27-36.2-35.7
			C1366.6,202.4,1366.1,206.9,1352.8,206.1z"/>
		<path class="st11" d="M1392.6,224.8l10.1,13.3c0,0,10.1,55.4,7,56.1c-3.1,0.8-21.8,7-25,4.7s-17.2-48.3-17.2-48.3L1392.6,224.8z"
			/>
		<path class="st11" d="M1310,220.9l-13.3,8.6c0,0-19.5,54.6-14,56.9c5.5,2.3,35.9,0.8,35.9,0.8L1310,220.9z"/>
		<path class="st14" d="M1371.1,152.1c0,0-7-15.2-20.5-11.7c-13.5,3.5-21.1,8.8-21.7,14c-0.6,5.3,0.3,13.2,0.3,13.2
			s1.5-10.8,10.8-8.5s24,0.6,24,0.6l2.3,21.1c0,0,2.6-3.8,5.6-1.5C1374.9,181.7,1380.5,156.8,1371.1,152.1z"/>
		<polygon class="st15" points="1450.4,519.1 1249.4,519.1 1249.4,517.5 1450.7,517.5 		"/>
	</g>
</g>
</svg>
