<?xml version="1.0" encoding="utf-8"?>
<!-- Generator: Adobe Illustrator 24.1.0, SVG Export Plug-In . SVG Version: 6.00 Build 0)  -->
<svg version="1.1" xmlns="http://www.w3.org/2000/svg" xmlns:xlink="http://www.w3.org/1999/xlink" x="0px" y="0px"
	 viewBox="0 0 1920 1080" style="enable-background:new 0 0 1920 1080;" xml:space="preserve">
<style type="text/css">
	.st0{fill:#91B4F9;}
	.st1{opacity:0.2;enable-background:new    ;}
	.st2{fill:#6C63FF;}
	.st3{fill:#3F3D56;}
	.st4{fill:#E6E6E6;}
	.st5{fill:#FFFFFF;}
	.st6{fill:#9E616A;}
	.st7{fill:#2F2E41;}
</style>
<g id="Layer_1">
	<path class="st0" d="M1920,1080H0c0,0,702-820,995-819S1921,0,1921,0L1920,1080z"/>
</g>
<g id="Layer_3">
	<g class="st1">
		
			<image style="overflow:visible;opacity:0.5;" width="1951" height="1110" xlink:href="AA9AA7FD42519657.png"  transform="matrix(1 0 0 1 -8 -8)">
		</image>
		<g>
			<path d="M0,1080c0,0,253-143,423-293c151.1-133.3,323.2-218,438-248c107-28,245-41,386,0c203.5,59.2,302.3,60.2,388,21
				c105-48,145-79,285-339l1-221L0,0V1080z"/>
		</g>
	</g>
</g>
<g id="Layer_2">
	<path class="st2" d="M0.5,1079.5c0,0,153-78,356-275c187.8-182.2,421-322,548-348s327-5,424,17s193,22.8,262,0
		c106-35,274-231,329-351l1-123H0.5V1079.5z"/>
</g>
<g id="Layer_4">
	<polygon class="st3" points="1330.1,804.6 1268.9,804.6 1268.9,806.6 1278.4,806.6 1278.4,825.3 1280.4,825.3 1280.4,806.6 
		1317.6,806.6 1317.6,825.3 1319.6,825.3 1319.6,806.6 1330.1,806.6 	"/>
	<polygon class="st3" points="1352.8,756.2 1337,756.2 1337,772 1344.3,772 1344.3,825.2 1346.3,825.2 1346.3,772 1352.8,772 	"/>
	<rect x="1269" y="798.7" class="st3" width="61.2" height="2"/>
	<rect x="1269" y="793.7" class="st3" width="61.2" height="2"/>
	<rect x="1269" y="788.8" class="st3" width="61.2" height="2"/>
	<path class="st3" d="M1487,831h-2c0-93.6-76.1-169.7-169.7-169.7c-93.6,0-169.7,76.1-169.7,169.7h-2c0-94.7,77-171.7,171.7-171.7
		C1410,659.3,1487,736.3,1487,831z"/>
	<circle class="st2" cx="1029.8" cy="617.6" r="161.4"/>
	<path class="st1" d="M1149.9,509.8c35,81.9-3,176.8-84.9,211.8c-63.8,27.3-137.8,10.7-183.9-41c35,81.9,129.9,120,211.8,85
		c81.9-35,120-129.9,85-211.8C1170.9,537.7,1161.5,522.8,1149.9,509.8z"/>
	<polygon class="st3" points="1030.3,617.6 1030.7,617.6 1038.7,1075 1021.9,1075 	"/>
	
		<rect x="1029.4" y="866.2" transform="matrix(0.8849 -0.4659 0.4659 0.8849 -285.1453 586.7706)" class="st3" width="30.1" height="8"/>
	<circle class="st2" cx="1623.8" cy="686" r="130.6"/>
	<path class="st1" d="M1720.9,598.8c28.4,66.3-2.4,143.1-68.8,171.4c-51.6,22.1-111.5,8.7-148.9-33.2
		c28.4,66.3,105.1,97.1,171.4,68.8c66.3-28.4,97.1-105.1,68.8-171.4C1737.9,621.4,1730.3,609.3,1720.9,598.8z"/>
	<polygon class="st3" points="1624.1,686 1624.5,686 1630.9,1056.3 1617.3,1056.3 	"/>
	
		<rect x="1623.4" y="887.3" transform="matrix(0.8849 -0.4659 0.4659 0.8849 -226.5329 864.4932)" class="st3" width="24.4" height="6.5"/>
	<circle class="st2" cx="1238.4" cy="777.9" r="20.6"/>
	<path class="st1" d="M1253.7,764.2c4.5,10.4-0.4,22.5-10.8,27c-8.1,3.5-17.6,1.4-23.4-5.2c4.5,10.4,16.5,15.3,27,10.8
		c10.4-4.5,15.3-16.5,10.8-27C1256.4,767.7,1255.2,765.8,1253.7,764.2z"/>
	<polygon class="st3" points="1238.4,777.9 1238.5,777.9 1239.5,836.2 1237.4,836.2 	"/>
	
		<rect x="1238.3" y="809.6" transform="matrix(0.8849 -0.4659 0.4659 0.8849 -234.5936 671.0594)" class="st3" width="3.8" height="1"/>
	
		<ellipse transform="matrix(0.1602 -0.9871 0.9871 0.1602 497.0922 2007.5743)" class="st2" cx="1428.4" cy="711.7" rx="52.6" ry="52.6"/>
	<path class="st1" d="M1467.5,676.5c11.4,26.7-1,57.7-27.7,69.1c-20.8,8.9-44.9,3.5-60-13.4c11.4,26.7,42.4,39.1,69.1,27.7
		c26.7-11.4,39.1-42.4,27.7-69.1C1474.4,685.6,1471.3,680.8,1467.5,676.5L1467.5,676.5z"/>
	<polygon class="st3" points="1428.5,711.7 1428.6,711.7 1431.2,860.9 1425.8,860.9 	"/>
	
		<rect x="1428.2" y="792.8" transform="matrix(0.8849 -0.4659 0.4659 0.8849 -204.9145 759.0672)" class="st3" width="9.8" height="2.6"/>
	<path class="st3" d="M1066,1052.3c0,0,0.7-14.3,14.7-12.6"/>
	<circle class="st2" cx="1062.1" cy="1031.7" r="7"/>
	<rect x="1060.9" y="1043.4" class="st3" width="2" height="13.8"/>
	<path class="st3" d="M1115.3,1019.7c0,0,0.7-14.3,14.7-12.6"/>
	<circle class="st2" cx="1111.4" cy="999.1" r="7"/>
	<rect x="1110.3" y="1010.9" class="st3" width="2" height="13.8"/>
	<path class="st3" d="M1264.1,909.2c0,0,0.5-11.3,11.6-10"/>
	<circle class="st2" cx="1260.9" cy="892.9" r="5.6"/>
	<rect x="1260" y="902.2" class="st3" width="1.6" height="11"/>
	<path class="st3" d="M1481.2,873.7c0,0,0.5-11.3,11.6-10"/>
	<circle class="st2" cx="1478.1" cy="857.3" r="5.6"/>
	<rect x="1477.2" y="866.7" class="st3" width="1.6" height="11"/>
	<path class="st3" d="M1274,938.8c0,0,0.5-11.3,11.6-10"/>
	<circle class="st2" cx="1270.8" cy="922.5" r="5.6"/>
	<rect x="1269.9" y="931.8" class="st3" width="1.6" height="11"/>
	<path class="st3" d="M1250.3,960.5c0,0,0.5-11.3,11.6-10"/>
	<circle class="st2" cx="1247.1" cy="944.2" r="5.6"/>
	<rect x="1246.2" y="953.5" class="st3" width="1.6" height="11"/>
	<path class="st3" d="M1514.7,892.4c0,0,0.5-11.3,11.6-10"/>
	<circle class="st2" cx="1511.6" cy="876.1" r="5.6"/>
	<rect x="1510.7" y="885.4" class="st3" width="1.6" height="11"/>
	<path class="st3" d="M1195,917.1c0,0,0.5-11.3,11.6-10"/>
	<circle class="st2" cx="1191.9" cy="900.7" r="5.6"/>
	<rect x="1191" y="910.1" class="st3" width="1.6" height="11"/>
	<path class="st3" d="M1451.6,860.8c0,0,0.5-11.3,11.6-10"/>
	<circle class="st2" cx="1448.5" cy="844.5" r="5.6"/>
	<rect x="1447.5" y="853.8" class="st3" width="1.6" height="11"/>
	<path class="st3" d="M980.1,1055.2c0,0,0.7-14.3,14.7-12.6"/>
	<circle class="st2" cx="976.2" cy="1034.6" r="7"/>
	<rect x="975.1" y="1046.4" class="st3" width="2" height="13.8"/>
	<path class="st3" d="M1660.1,1051.3c0,0,0.7-14.3,14.7-12.6"/>
	<circle class="st2" cx="1656.1" cy="1030.7" r="7"/>
	<rect x="1655" y="1042.5" class="st3" width="2" height="13.8"/>
	<path class="st3" d="M1602.9,1017.7c0,0,0.7-14.3,14.7-12.6"/>
	<circle class="st2" cx="1598.9" cy="997.1" r="7"/>
	<rect x="1597.8" y="1008.9" class="st3" width="2" height="13.8"/>
	<path class="st3" d="M1595,1068c0,0,0.7-14.3,14.7-12.6"/>
	<circle class="st2" cx="1591" cy="1047.5" r="7"/>
	<rect x="1589.9" y="1059.2" class="st3" width="2" height="13.8"/>
	<path class="st4" d="M991.5,1078.7c0,0,310.9-81.9,307.9-165.8c-5.4-23.2-42.9-29.1-42.9-29.1s-88.8-11.8-40.5-40.5
		s180.6-21.7,180.6-21.7s-136.2,21.7-76,33.6c48.4,3,110.5,15.8,110.5,15.8s126.3,26.6,144.1,91.8c17.8,65.1,3,115.5,3,115.5
		L991.5,1078.7z"/>
	<path class="st5" d="M1330.1,1079l-1.2-1.6c1.6-1.2,3.3-2.3,4.9-3.5l1.2,1.6C1333.4,1076.7,1331.7,1077.8,1330.1,1079z"/>
	<path class="st5" d="M1344.6,1068.3l-1.2-1.6c3.2-2.4,6.4-4.9,9.5-7.3l1.2,1.6C1351,1063.4,1347.8,1065.9,1344.6,1068.3z
		 M1363.4,1053.4l-1.3-1.5c3.1-2.6,6.2-5.2,9.1-7.8l1.3,1.5C1369.6,1048.2,1366.6,1050.8,1363.4,1053.4z M1381.5,1037.6l-1.4-1.5
		c3-2.8,5.9-5.6,8.6-8.3l1.4,1.4C1387.4,1031.9,1384.5,1034.8,1381.5,1037.6z M1398.3,1020.4l-1.5-1.3c2.7-3.1,5.3-6.1,7.7-9.1
		l1.6,1.2C1403.7,1014.3,1401.1,1017.4,1398.3,1020.4z M1413.3,1001.6l-1.7-1.1c2.3-3.4,4.4-6.8,6.2-10.1l1.8,1
		C1417.8,994.7,1415.6,998.1,1413.3,1001.6z M1424.8,980.4l-1.9-0.7c1.5-3.7,2.6-7.4,3.4-11.3l2,0.4
		C1427.4,972.7,1426.3,976.6,1424.8,980.4L1424.8,980.4z M1427.4,956.7c-0.1-3.9-0.6-7.8-1.6-11.5l1.9-0.5c1.1,3.9,1.6,7.9,1.7,12
		L1427.4,956.7z M1421.4,934.4c-1.9-3.4-4.1-6.7-6.7-9.7l1.5-1.3c2.6,3.1,4.9,6.4,6.9,10L1421.4,934.4z M1406.5,916.2
		c-3-2.6-6.1-5.1-9.3-7.3l1.2-1.6c3.3,2.3,6.5,4.8,9.5,7.5L1406.5,916.2z M1387.2,902.5c-3.3-1.9-6.8-3.8-10.5-5.7l0.9-1.8
		c3.7,1.9,7.3,3.8,10.6,5.8L1387.2,902.5z M1365.9,891.7c-3.5-1.5-7.2-3.1-11-4.6l0.7-1.9c3.9,1.5,7.6,3.1,11.1,4.7L1365.9,891.7z
		 M1343.6,882.8c-3.6-1.3-7.4-2.6-11.3-3.9l0.6-1.9c4,1.3,7.8,2.7,11.4,4L1343.6,882.8z M1320.9,875.1c-3.5-1.1-7.2-2.3-11.5-3.5
		l0.6-1.9c4.2,1.3,8,2.4,11.5,3.5L1320.9,875.1z M1297.9,868.1c-4-1.2-7.9-2.4-11.5-3.5l0.6-1.9c3.6,1.1,7.5,2.3,11.5,3.5
		L1297.9,868.1z M1275,860.9c-3.8-1.3-7.6-2.8-11.3-4.5l0.9-1.8c3.6,1.7,7.3,3.2,11,4.4L1275,860.9z M1259.9,847.8l-1.4-1.4
		c1.8-1.9,5.4-3.7,11-5.5l0.6,1.9C1264.9,844.5,1261.4,846.2,1259.9,847.8L1259.9,847.8z M1281.5,839.5l-0.5-1.9
		c3.5-0.9,7.4-1.8,11.7-2.7l0.4,2C1288.9,837.8,1285,838.7,1281.5,839.5L1281.5,839.5z M1304.9,834.5l-0.4-2
		c3.7-0.7,7.7-1.4,11.8-2.2l0.3,2C1312.5,833.1,1308.6,833.8,1304.9,834.5L1304.9,834.5z M1328.5,830.3l-0.3-2
		c3.8-0.6,7.7-1.3,11.8-1.9l0.3,2C1336.2,829,1332.2,829.7,1328.5,830.3z"/>
	<path class="st5" d="M1352.3,826.5l-0.3-2c1.9-0.3,3.9-0.6,5.9-0.9l0.3,2C1356.3,825.9,1354.3,826.2,1352.3,826.5z"/>
	<path class="st3" d="M1396.6,623.3l9.1-7.3c-7.1-0.8-10,3.1-11.1,6.1c-5.5-2.3-11.5,0.7-11.5,0.7l18.2,6.6
		C1400.3,627,1398.7,624.9,1396.6,623.3z"/>
	<path class="st3" d="M1227.9,679.6l9.1-7.3c-7.1-0.8-10,3.1-11.1,6.1c-5.5-2.3-11.5,0.7-11.5,0.7l18.2,6.6
		C1231.5,683.3,1229.9,681.2,1227.9,679.6z"/>
	<path class="st3" d="M1272.3,563.1l9.1-7.3c-7.1-0.8-10,3.1-11.1,6.1c-5.5-2.3-11.5,0.7-11.5,0.7l18.2,6.6
		C1275.9,566.8,1274.4,564.7,1272.3,563.1z"/>
	<path class="st6" d="M1371,886.7c0,0-7.9,0-8.7,4.8s-2.2,57.3-1.3,63.8c0.9,6.6,0.9,5.2,0.9,5.2s-1.7,12.5,2.2,13
		c3.9,0.5,3.9-14.3,3.9-14.3l3.1-53.3V886.7z"/>
	<path class="st6" d="M1405.1,886.7c0,0,7.9,0,8.7,4.8s2.2,57.3,1.3,63.8c-0.9,6.6-0.9,5.2-0.9,5.2s1.7,12.5-2.2,13
		c-3.9,0.5-3.9-14.3-3.9-14.3l-3.1-53.3L1405.1,886.7z"/>
	<path class="st7" d="M1369.7,1069.4h-3.5c-4.3,0-7.9,3.5-7.9,7.9v0v0h21.4v-10.1h-10.1V1069.4z"/>
	<path class="st7" d="M1403.4,1069.4h3.5c4.3,0,7.9,3.5,7.9,7.9l0,0v0h-21.4v-10.1h10.1L1403.4,1069.4z"/>
	<circle class="st6" cx="1384.6" cy="865.2" r="11.4"/>
	<path class="st6" d="M1382,871.4c0,0-1.3,14.4-3.1,15.7c-1.7,1.3,18.4-0.9,18.4-0.9s-7-10.5-5.7-14
		C1392.9,868.7,1382,871.4,1382,871.4z"/>
	<path class="st7" d="M1407.7,886.7c0,0-24-10.1-39.8,0c0,0-3.9,10.1-0.9,15.7s7.9,19.2,3.1,28.4s0.4,5.2,0.4,5.2s-6.1,24.5-7,43.7
		c-0.9,19.2,2.6,88.3,5.2,88.7s10.9,1.3,11.8,0c0.9-1.3,7-92.7,7-92.7s2.6,93.6,5.2,93.6s9.6,0,10.9-2.2c1.3-2.2,12.2-86.6,8.3-104
		c-3.9-17.5-6.6-26.2-6.6-26.2s4.8-3.1,3.5-4.8s-7.9-20.5-4.8-23.6S1407.7,886.7,1407.7,886.7z"/>
	<circle class="st7" cx="1391.8" cy="858.4" r="18.4"/>
	<path class="st7" d="M1403.3,849.2c-6.4-1.5-10.5-7.8-9.3-14.3c-0.1,0.2-0.1,0.4-0.1,0.6c-1.6,6.6,2.6,13.3,9.2,14.9
		c6.6,1.6,13.3-2.6,14.9-9.2c0-0.2,0.1-0.4,0.1-0.6C1416.2,846.9,1409.7,850.7,1403.3,849.2z"/>
	<circle class="st7" cx="1404" cy="842.6" r="9"/>
</g>
</svg>
