<?xml version="1.0" encoding="utf-8"?>
<!-- Generator: Adobe Illustrator 24.1.0, SVG Export Plug-In . SVG Version: 6.00 Build 0)  -->
<svg version="1.1" id="abc6f0fe-ac59-4901-a46a-93a5eed63bf8"
	 xmlns="http://www.w3.org/2000/svg" xmlns:xlink="http://www.w3.org/1999/xlink" x="0px" y="0px" viewBox="0 0 469 650.5"
	 style="enable-background:new 0 0 469 650.5;" xml:space="preserve">
<style type="text/css">
	.st0{fill:#3F3D56;}
	.st1{fill:#FFFFFF;}
	.st2{fill:#E6E6E6;}
	.st3{fill:#6C63FF;}
</style>
<g>
	<path class="st0" d="M423.6,0H183c-23.9,0-44.6,16.6-49.9,39.9L11.5,579.2c-5,22.3,9,44.4,31.2,49.4c2.3,0.5,4.7,0.8,7.1,1
		l247.4,12.2c27.4,1.3,51.5-17.8,56.4-44.8l69-381.3l5.1,1.5l13.2-72.3l-5.3-1.3l19.3-106.4c3.1-17.1-8.3-33.5-25.4-36.6
		C427.5,0.2,425.5,0,423.6,0L423.6,0z"/>
	<path class="st1" d="M214.6,11.6h-28.1c-16.6,0-31,11.6-34.5,27.8L35.3,574.3c-2.6,11.8,4.9,23.5,16.7,26.1
		c1.1,0.2,2.1,0.4,3.2,0.5L301.8,617c14.4,0.9,27.2-9.1,29.8-23.3l99.6-552.8c2.4-13.5-6.5-26.4-20-28.9c-1.5-0.3-2.9-0.4-4.4-0.4
		h-26.6c-5.3,0-9.9,3.6-11.3,8.7l0,0c-1.2,4.5-5.3,7.7-10,7.7H232.3C223,28,215.3,20.8,214.6,11.6L214.6,11.6z"/>
	<path class="st2" d="M354.6,385.5c1,0,1.9-0.7,2.1-1.6L411.9,83c0.2-1.1-0.5-2.1-1.6-2.3c-0.1,0-0.2,0-0.3,0l-251.5-2.9h0
		c-0.9,0-1.7,0.7-2,1.6L91.3,370.4c-0.2,1.1,0.4,2.1,1.5,2.4c0.1,0,0.2,0,0.3,0L354.6,385.5z"/>
	<path class="st2" d="M135.7,404.8c-0.5,0-0.9,0.3-1,0.8l-2.3,10c-0.1,0.5,0.2,1.1,0.7,1.2c0.1,0,0.1,0,0.2,0l131.2,9.3
		c0.5,0,1-0.3,1.1-0.8l2.2-11.5c0.1-0.5-0.2-1.1-0.8-1.2c0,0-0.1,0-0.1,0L135.7,404.8C135.7,404.8,135.7,404.8,135.7,404.8z"/>
	<path class="st2" d="M295.1,463c0.5,0,0.9-0.3,1.1-0.8l2.8-11.5c0.1-0.5-0.2-1.1-0.7-1.2c-0.1,0-0.1,0-0.2,0l-167.6-11.7
		c-0.5,0-0.9,0.3-1,0.7l-3,10c-0.2,0.5,0.1,1.1,0.7,1.2c0.1,0,0.1,0,0.2,0L295.1,463z"/>
	<path class="st2" d="M286.1,500c0.5,0,0.9-0.3,1.1-0.8l2.8-11.5c0.1-0.5-0.2-1.1-0.7-1.2c-0.1,0-0.1,0-0.2,0l-167.6-11.7
		c-0.5,0-0.9,0.3-1,0.7l-3,10c-0.2,0.5,0.1,1.1,0.7,1.2c0.1,0,0.1,0,0.2,0L286.1,500z"/>
	<path class="st3" d="M208.9,563.5c0.5,0.1,0.9-0.3,1.1-0.8l6-24.1c0.1-0.5-0.2-1.1-0.7-1.2c-0.1,0-0.1,0-0.2,0l-102.9-8.7
		c-0.5,0-0.9,0.3-1.1,0.8l-5.1,23.1c-0.1,0.5,0.2,1.1,0.8,1.2c0,0,0.1,0,0.1,0L208.9,563.5z"/>
</g>
</svg>
